<svg width="64" height="50" viewBox="0 0 64 50" fill="none" xmlns="http://www.w3.org/2000/svg">
<g id="basil:menu-solid">
<path id="Vector" fill-rule="evenodd" clip-rule="evenodd" d="M52.6666 25C52.6666 24.5856 52.4559 24.1882 52.0809 23.8952C51.7058 23.6021 51.1971 23.4375 50.6666 23.4375H13.3333C12.8029 23.4375 12.2942 23.6021 11.9191 23.8952C11.544 24.1882 11.3333 24.5856 11.3333 25C11.3333 25.4144 11.544 25.8118 11.9191 26.1049C12.2942 26.3979 12.8029 26.5625 13.3333 26.5625H50.6666C51.1971 26.5625 51.7058 26.3979 52.0809 26.1049C52.4559 25.8118 52.6666 25.4144 52.6666 25ZM52.6666 14.5833C52.6666 14.1689 52.4559 13.7715 52.0809 13.4785C51.7058 13.1855 51.1971 13.0208 50.6666 13.0208H13.3333C12.8029 13.0208 12.2942 13.1855 11.9191 13.4785C11.544 13.7715 11.3333 14.1689 11.3333 14.5833C11.3333 14.9977 11.544 15.3952 11.9191 15.6882C12.2942 15.9812 12.8029 16.1458 13.3333 16.1458H50.6666C51.1971 16.1458 51.7058 15.9812 52.0809 15.6882C52.4559 15.3952 52.6666 14.9977 52.6666 14.5833ZM52.6666 35.4167C52.6666 35.0023 52.4559 34.6048 52.0809 34.3118C51.7058 34.0188 51.1971 33.8542 50.6666 33.8542H13.3333C12.8029 33.8542 12.2942 34.0188 11.9191 34.3118C11.544 34.6048 11.3333 35.0023 11.3333 35.4167C11.3333 35.8311 11.544 36.2285 11.9191 36.5215C12.2942 36.8146 12.8029 36.9792 13.3333 36.9792H50.6666C51.1971 36.9792 51.7058 36.8146 52.0809 36.5215C52.4559 36.2285 52.6666 35.8311 52.6666 35.4167Z" fill="white" fill-opacity="0.87"/>
</g>
</svg>
