<svg width="36" height="36" viewBox="0 0 36 36" fill="none" xmlns="http://www.w3.org/2000/svg">
<g id="clarity:world-line" clip-path="url(#clip0_1595_228)">
<path id="Vector" d="M26.54 18C26.5358 16.6554 26.3917 15.3148 26.11 14H29.71C29.5246 13.4516 29.3007 12.9169 29.04 12.4H25.69C25.0603 10.2961 24.0835 8.31209 22.8 6.53C21.98 6.1852 21.125 5.93038 20.25 5.77C22.0083 7.65924 23.3356 9.90768 24.14 12.36H18.75V5.6H17.25V12.37H11.86C12.6661 9.91324 13.9968 7.6612 15.76 5.77C14.8888 5.9277 14.0372 6.17916 13.22 6.52C11.9315 8.29462 10.948 10.2718 10.31 12.37H6.94001C6.67458 12.8963 6.44732 13.4411 6.26001 14H9.89001C9.6083 15.3148 9.46419 16.6554 9.46001 18C9.46277 19.4708 9.63049 20.9366 9.96001 22.37H6.42001C6.62689 22.9305 6.87421 23.4753 7.16001 24H10.39C11.0022 25.9158 11.9098 27.7242 13.08 29.36C13.918 29.7194 14.7934 29.9844 15.69 30.15C14.0579 28.3698 12.8028 26.2778 12 24H17.26V30.34H18.76V24H24C23.1945 26.2788 21.9359 28.3708 20.3 30.15C21.2008 29.9787 22.0797 29.707 22.92 29.34C24.0884 27.7104 24.9959 25.9088 25.61 24H28.81C29.0945 23.485 29.3418 22.9503 29.55 22.4H26C26.3452 20.9584 26.5264 19.4823 26.54 18ZM17.25 22.37H11.51C10.806 19.6178 10.7751 16.7366 11.42 13.97H17.25V22.37ZM24.49 22.37H18.75V14H24.58C24.8673 15.3137 25.0081 16.6552 25 18C25.0081 19.472 24.8369 20.9395 24.49 22.37Z" fill="black"/>
<path id="Vector_2" d="M18 2C14.8355 2 11.7421 2.93838 9.11088 4.69649C6.4797 6.45459 4.42894 8.95345 3.21793 11.8771C2.00693 14.8007 1.69008 18.0177 2.30744 21.1214C2.92481 24.2251 4.44866 27.0761 6.6863 29.3137C8.92394 31.5513 11.7749 33.0752 14.8786 33.6926C17.9823 34.3099 21.1993 33.9931 24.1229 32.7821C27.0466 31.5711 29.5454 29.5203 31.3035 26.8891C33.0616 24.2579 34 21.1645 34 18C34 13.7565 32.3143 9.68687 29.3137 6.68629C26.3131 3.68571 22.2435 2 18 2ZM18 32C15.2311 32 12.5243 31.1789 10.222 29.6406C7.91974 28.1022 6.12532 25.9157 5.06569 23.3576C4.00607 20.7994 3.72882 17.9845 4.26901 15.2687C4.80921 12.553 6.14258 10.0584 8.10051 8.1005C10.0584 6.14257 12.553 4.8092 15.2687 4.26901C17.9845 3.72881 20.7994 4.00606 23.3576 5.06569C25.9157 6.12531 28.1022 7.91973 29.6406 10.222C31.1789 12.5243 32 15.2311 32 18C32 21.713 30.525 25.274 27.8995 27.8995C25.274 30.525 21.713 32 18 32Z" fill="black"/>
</g>
<defs>
<clipPath id="clip0_1595_228">
<rect width="36" height="36" fill="white"/>
</clipPath>
</defs>
</svg>
