<svg width="72" height="72" viewBox="0 0 72 72" fill="none" xmlns="http://www.w3.org/2000/svg">
<g id="div">
<rect width="72" height="72" rx="36" fill="white"/>
<path id="Vector" d="M40.1875 27.6875C40.1875 25.0986 38.0889 23 35.5 23C32.9111 23 30.8125 25.0986 30.8125 27.6875C30.8125 30.2764 32.9111 32.375 35.5 32.375C38.0889 32.375 40.1875 30.2764 40.1875 27.6875ZM34.4058 34.7725C31.5088 32.999 26.8164 32.5117 24.4551 32.3774C23.6616 32.3325 23 32.937 23 33.7002V44.5791C23 45.2788 23.5659 45.8623 24.2935 45.8999C26.4253 46.0117 30.7383 46.4214 33.7192 47.9229C34.1768 48.1533 34.7192 47.8394 34.7192 47.3433V35.332C34.7188 35.104 34.606 34.895 34.4058 34.7725ZM46.5449 32.3774C44.1841 32.5112 39.4912 32.999 36.5947 34.7725C36.3945 34.895 36.2817 35.1123 36.2817 35.3403V47.3418C57.5 47.9229 36.8257 48.1538 37.2847 47.9229C40.2651 46.4229 44.5757 46.0132 46.707 45.9014C47.4346 45.8633 48.0005 45.2798 48.0005 44.5801V33.7002C48 32.937 47.3384 32.3325 46.5449 32.3774Z" fill="#7A7A7A"/>
<rect x="0.5" y="0.5" width="71" height="71" rx="35.5" stroke="black" stroke-opacity="0.12"/>
</g>
</svg>
