<svg width="32" height="32" viewBox="0 0 32 32" fill="none" xmlns="http://www.w3.org/2000/svg">
<g id="Frame">
<path id="Vector" d="M20 10.6666C20 8.77331 19.3334 7.02665 18.2267 5.65331C18.7867 5.46665 19.3734 5.33331 20 5.33331C22.9467 5.33331 25.3334 7.71998 25.3334 10.6666C25.3334 13.6133 22.9467 16 20 16C19.4267 16 18.88 15.88 18.36 15.72C18.32 15.7066 18.28 15.6933 18.2267 15.68C19.3741 14.261 20 12.4914 20 10.6666ZM22.2134 17.5066C24.04 18.7466 25.3334 20.4266 25.3334 22.6666V26.6666H30.6667V22.6666C30.6667 19.76 25.8934 18.04 22.2134 17.5066ZM12 7.99998C10.5334 7.99998 9.33337 9.19998 9.33337 10.6666C9.33337 12.1333 10.5334 13.3333 12 13.3333C13.4667 13.3333 14.6667 12.1333 14.6667 10.6666C14.6667 9.19998 13.4667 7.99998 12 7.99998ZM12 20C8.40004 20 4.26671 21.72 4.00004 22.68V24H20V22.6666C19.7334 21.72 15.6 20 12 20ZM12 5.33331C14.9467 5.33331 17.3334 7.71998 17.3334 10.6666C17.3334 13.6133 14.9467 16 12 16C9.05337 16 6.66671 13.6133 6.66671 10.6666C6.66671 7.71998 9.05337 5.33331 12 5.33331ZM12 17.3333C15.56 17.3333 22.6667 19.12 22.6667 22.6666V26.6666H1.33337V22.6666C1.33337 19.12 8.44004 17.3333 12 17.3333Z" fill="#757575"/>
</g>
</svg>
