<svg width="72" height="72" viewBox="0 0 72 72" fill="none" xmlns="http://www.w3.org/2000/svg">
<g id="div">
<rect width="72" height="72" rx="36" fill="white"/>
<path id="Vector" d="M41.7536 30H29.2509C28.2204 29.9999 27.2058 30.2545 26.2976 30.7413C25.3893 31.2281 24.6155 31.9319 24.045 32.7901C23.4746 33.6483 23.1251 34.6343 23.0279 35.6602C22.9306 36.6861 23.0886 37.7201 23.4876 38.6702C23.8867 39.6203 24.5144 40.457 25.3151 41.1058C26.1157 41.7546 27.0643 42.1953 28.0765 42.3888C29.0887 42.5823 30.133 42.5225 31.1164 42.2148C32.0999 41.9071 32.992 41.3609 33.7134 40.625H37.2884C38.0097 41.3608 38.9017 41.9069 39.885 42.2147C40.8684 42.5225 41.9126 42.5823 42.9246 42.389C43.9367 42.1956 44.8853 41.755 45.6859 41.1064C46.4866 40.4578 47.1144 39.6214 47.5136 38.6715C47.9129 37.7216 48.071 36.6877 47.9741 35.6619C47.8771 34.6361 47.528 33.6501 46.9579 32.7918C46.3878 31.9336 45.6143 31.2295 44.7063 30.7424C43.7983 30.2554 42.784 30.0003 41.7536 30ZM32.6884 36.7188C32.6884 36.8431 32.639 36.9623 32.5511 37.0502C32.4632 37.1381 32.344 37.1875 32.2196 37.1875H30.1884V39.2188C30.1884 39.3431 30.139 39.4623 30.0511 39.5502C29.9632 39.6381 29.844 39.6875 29.7196 39.6875H28.7821C28.6578 39.6875 28.5386 39.6381 28.4507 39.5502C28.3628 39.4623 28.3134 39.3431 28.3134 39.2188V37.1875H26.2821C26.1578 37.1875 26.0386 37.1381 25.9507 37.0502C25.8628 36.9623 25.8134 36.8431 25.8134 36.7188V35.7812C25.8134 35.6569 25.8628 35.5377 25.9507 35.4498C26.0386 35.3619 26.1578 35.3125 26.2821 35.3125H28.3134V33.2812C28.3134 33.1569 28.3628 33.0377 28.4507 32.9498C28.5386 32.8619 28.6578 32.8125 28.7821 32.8125H29.7196C29.844 32.8125 29.9632 32.8619 30.0511 32.9498C30.139 33.0377 30.1884 33.1569 30.1884 33.2812V35.3125H32.2196C32.344 35.3125 32.4632 35.3619 32.5511 35.4498C32.639 35.5377 32.6884 35.6569 32.6884 35.7812V36.7188ZM41.1259 39.6875C40.8169 39.6875 40.5148 39.5959 40.2578 39.4242C40.0009 39.2525 39.8006 39.0085 39.6823 38.7229C39.5641 38.4374 39.5331 38.1233 39.5934 37.8202C39.6537 37.5171 39.8025 37.2387 40.021 37.0201C40.2396 36.8016 40.518 36.6528 40.8211 36.5925C41.1242 36.5322 41.4383 36.5632 41.7238 36.6814C42.0093 36.7997 42.2534 37 42.4251 37.2569C42.5968 37.5139 42.6884 37.816 42.6884 38.125C42.6884 38.5394 42.5238 38.9368 42.2308 39.2299C41.9377 39.5229 41.5403 39.6875 41.1259 39.6875ZM43.6259 35.9375C43.3169 35.9375 43.0148 35.8459 42.7578 35.6742C42.5009 35.5025 42.3006 35.2585 42.1823 34.9729C42.0641 34.6874 42.0331 34.3733 42.0934 34.0702C42.1537 33.7671 42.3025 33.4887 42.521 33.2701C42.7396 33.0516 43.018 32.9028 43.3211 32.8425C43.6242 32.7822 43.9383 32.8132 44.2238 32.9314C44.5093 33.0497 44.7534 33.25 44.9251 33.5069C45.0968 33.7639 45.1884 34.066 45.1884 34.375C45.1884 34.7894 45.0238 35.1868 44.7308 35.4799C44.4377 35.7729 44.0403 35.9375 43.6259 35.9375Z" fill="#5F6368"/>
<rect x="0.5" y="0.5" width="71" height="71" rx="35.5" stroke="black" stroke-opacity="0.12"/>
</g>
</svg>
