<svg width="32" height="32" viewBox="0 0 32 32" fill="none" xmlns="http://www.w3.org/2000/svg">
<g id="Frame">
<path id="Vector" d="M5.33329 5.33335V8.01335C7.77329 4.77335 11.64 2.66669 16.0133 2.66669C23.3733 2.66669 29.3333 8.64002 29.3333 16C29.3333 23.36 23.3733 29.3334 16.0133 29.3334C8.63996 29.3334 2.66663 23.36 2.66663 16H5.33329C5.33329 21.8934 10.1066 26.6667 16 26.6667C21.8933 26.6667 26.6666 21.8934 26.6666 16C26.6666 10.1067 21.8933 5.33335 16 5.33335C12.0533 5.33335 8.62663 7.48002 6.78663 10.6667H10.6666V13.3334H2.66663V5.33335H5.33329Z" fill="#757575"/>
<path id="Vector_2" d="M17.3333 16V8H14.6666V17.3333L21.2933 21.9867L22.9733 19.92L17.3333 16Z" fill="#757575"/>
</g>
</svg>
