<svg width="72" height="72" viewBox="0 0 72 72" fill="none" xmlns="http://www.w3.org/2000/svg">
<rect width="72" height="72" rx="36" fill="white"/>
<g clip-path="url(#clip0_1582_217)">
<path d="M46.9167 26.7778H26.0833C24.9332 26.7778 24 27.7109 24 28.8611V44.1389C24 45.2891 24.9332 46.2222 26.0833 46.2222H46.9167C48.0668 46.2222 49 45.2891 49 44.1389V28.8611C49 27.7109 48.0668 26.7778 46.9167 26.7778ZM31.6389 30.9444C33.171 30.9444 34.4167 32.1901 34.4167 33.7222C34.4167 35.2543 33.171 36.5 31.6389 36.5C30.1068 36.5 28.8611 35.2543 28.8611 33.7222C28.8611 32.1901 30.1068 30.9444 31.6389 30.9444ZM36.5 41.2222C36.5 41.6823 36.066 42.0556 35.5278 42.0556H27.75C27.2118 42.0556 26.7778 41.6823 26.7778 41.2222V40.3889C26.7778 39.0087 28.0842 37.8889 29.6944 37.8889H29.9115C30.4453 38.1102 31.0269 38.2361 31.6389 38.2361C32.2509 38.2361 32.8368 38.1102 33.3663 37.8889H33.5833C35.1936 37.8889 36.5 39.0087 36.5 40.3889V41.2222ZM46.2222 38.9306C46.2222 39.1215 46.066 39.2778 45.875 39.2778H39.625C39.434 39.2778 39.2778 39.1215 39.2778 38.9306V38.2361C39.2778 38.0451 39.434 37.8889 39.625 37.8889H45.875C46.066 37.8889 46.2222 38.0451 46.2222 38.2361V38.9306ZM46.2222 36.1528C46.2222 36.3438 46.066 36.5 45.875 36.5H39.625C39.434 36.5 39.2778 36.3438 39.2778 36.1528V35.4583C39.2778 35.2674 39.434 35.1111 39.625 35.1111H45.875C46.066 35.1111 46.2222 35.2674 46.2222 35.4583V36.1528ZM46.2222 33.375C46.2222 33.566 46.066 33.7222 45.875 33.7222H39.625C39.434 33.7222 39.2778 33.566 39.2778 33.375V32.6806C39.2778 32.4896 39.434 32.3333 39.625 32.3333H45.875C46.066 32.3333 46.2222 32.4896 46.2222 32.6806V33.375Z" fill="#7A7A7A"/>
</g>
<rect x="0.5" y="0.5" width="71" height="71" rx="35.5" stroke="black" stroke-opacity="0.12"/>
<defs>
<clipPath id="clip0_1582_217">
<rect width="25" height="25" fill="white" transform="translate(24 24)"/>
</clipPath>
</defs>
</svg>
