<svg width="72" height="72" viewBox="0 0 72 72" fill="none" xmlns="http://www.w3.org/2000/svg">
<g id="div">
<rect width="72" height="72" rx="36" fill="white"/>
<path id="Vector" d="M28.0006 29.75C29.0357 29.75 29.8756 28.9102 29.8756 27.875C29.8756 26.8398 29.0357 26 28.0006 26C26.9654 26 26.1256 26.8398 26.1256 27.875C26.1256 28.9102 26.9654 29.75 28.0006 29.75ZM43.0006 29.75C44.0357 29.75 44.8756 28.9102 44.8756 27.875C44.8756 26.8398 44.0357 26 43.0006 26C41.9654 26 41.1256 26.8398 41.1256 27.875C41.1256 28.9102 41.9654 29.75 43.0006 29.75ZM47.9107 44.2852L46.192 39.9883L44.5865 41.8008L44.5084 42.5117L45.5904 45.2148C45.7857 45.7031 46.2545 46 46.7506 46C46.9068 46 47.0631 45.9727 47.2154 45.9102C47.8561 45.6523 48.1686 44.9258 47.9107 44.2852ZM46.5748 36.0898L45.8521 32.957C45.6725 32.1758 45.1256 31.5195 44.3873 31.2031C43.6646 30.8906 42.8639 30.9414 42.1959 31.332C41.3092 31.8555 40.6451 32.6797 40.317 33.6523L39.8756 34.9766L39.2506 35.375V31.625C39.2506 31.2812 38.9693 31 38.6256 31H32.3756C32.0318 31 31.7506 31.2812 31.7506 31.625V35.375L31.1217 34.9766L30.6803 33.6523C30.3561 32.6758 29.6881 31.8555 28.8014 31.332C28.1295 30.9414 27.3326 30.8906 26.61 31.2031C25.8717 31.5195 25.3248 32.1758 25.1451 32.957L24.4264 36.0898C24.2467 36.8711 24.4537 37.6992 24.9889 38.3047L27.6139 41.2695L28.0084 44.8867C28.0787 45.5234 28.6178 46 29.2506 46C29.2975 46 29.3404 45.9961 29.3873 45.9922C30.0748 45.918 30.567 45.3008 30.4928 44.6133L30.0982 40.9883C30.0396 40.4805 29.8287 40.0078 29.4889 39.6211L27.7975 37.707L28.485 34.9609L28.7506 35.7578C28.9107 36.2461 29.2154 36.6719 29.7076 37.0312L31.7037 38.3008C31.8834 38.4141 32.1764 38.4805 32.3756 38.4961H38.6256C38.8248 38.4805 39.1178 38.4141 39.2975 38.3008L41.2936 37.0312C41.7857 36.6719 42.0904 36.25 42.2506 35.7578L42.5162 34.9609L43.2037 37.707L41.5123 39.6211C41.1725 40.0078 40.9615 40.4805 40.9029 40.9883L40.5084 44.6133C40.4342 45.3008 40.9303 45.918 41.6139 45.9922C41.6607 45.9961 41.7037 46 41.7506 46C42.3795 46 42.9225 45.5273 42.9928 44.8867L43.3873 41.2695L46.0123 38.3047C46.5436 37.6992 46.7545 36.8711 46.5748 36.0898ZM24.8092 39.9883L23.0904 44.2852C22.8326 44.9258 23.1451 45.6523 23.7857 45.9102C24.442 46.168 25.1568 45.8438 25.4107 45.2148L26.4928 42.5117L26.4146 41.8008L24.8092 39.9883Z" fill="#7A7A7A"/>
<rect x="0.5" y="0.5" width="71" height="71" rx="35.5" stroke="black" stroke-opacity="0.12"/>
</g>
</svg>
