<svg width="182" height="43" viewBox="0 0 182 43" fill="none" xmlns="http://www.w3.org/2000/svg">
<rect x="36" width="146" height="43" rx="8" fill="#D9D9D9"/>
<path d="M1 21H2.16667M11.5 10V11.2222M20.8333 21H22M4.03333 13.1778L4.85 14.0333M18.9667 13.1778L18.15 14.0333M8.81667 27.1111H14.1833M8 25.8889C7.02055 25.1193 6.29706 24.0464 5.932 22.8221C5.56695 21.5979 5.57885 20.2843 5.96601 19.0675C6.35318 17.8507 7.09597 16.7924 8.08919 16.0424C9.08241 15.2925 10.2757 14.8889 11.5 14.8889C12.7243 14.8889 13.9176 15.2925 14.9108 16.0424C15.904 16.7924 16.6468 17.8507 17.034 19.0675C17.4211 20.2843 17.433 21.5979 17.068 22.8221C16.7029 24.0464 15.9795 25.1193 15 25.8889C14.5445 26.3613 14.2015 26.9393 13.9988 27.5763C13.7962 28.2133 13.7395 28.8913 13.8333 29.5556C13.8333 30.2039 13.5875 30.8256 13.1499 31.284C12.7123 31.7425 12.1188 32 11.5 32C10.8812 32 10.2877 31.7425 9.85008 31.284C9.4125 30.8256 9.16667 30.2039 9.16667 29.5556C9.26053 28.8913 9.20383 28.2133 9.00115 27.5763C8.79847 26.9393 8.4555 26.3613 8 25.8889Z" stroke="white" stroke-opacity="0.87" stroke-width="2" stroke-linecap="round" stroke-linejoin="round"/>
<path d="M77.47 19.07C77.1993 18.5007 76.8073 18.062 76.294 17.754C75.7807 17.4367 75.1833 17.278 74.502 17.278C73.8207 17.278 73.2047 17.4367 72.654 17.754C72.1127 18.062 71.6833 18.51 71.366 19.098C71.058 19.6767 70.904 20.3487 70.904 21.114C70.904 21.8793 71.058 22.5513 71.366 23.13C71.6833 23.7087 72.1127 24.1567 72.654 24.474C73.2047 24.782 73.8207 24.936 74.502 24.936C75.454 24.936 76.238 24.6513 76.854 24.082C77.47 23.5127 77.8293 22.7427 77.932 21.772H74.04V20.736H79.29V21.716C79.2153 22.5187 78.9633 23.256 78.534 23.928C78.1047 24.5907 77.54 25.118 76.84 25.51C76.14 25.8927 75.3607 26.084 74.502 26.084C73.5967 26.084 72.7707 25.874 72.024 25.454C71.2773 25.0247 70.6847 24.432 70.246 23.676C69.8167 22.92 69.602 22.066 69.602 21.114C69.602 20.162 69.8167 19.308 70.246 18.552C70.6847 17.7867 71.2773 17.194 72.024 16.774C72.7707 16.3447 73.5967 16.13 74.502 16.13C75.538 16.13 76.4527 16.3867 77.246 16.9C78.0487 17.4133 78.632 18.1367 78.996 19.07H77.47ZM87.9745 21.87C87.9745 22.1127 87.9605 22.3693 87.9325 22.64H81.8005C81.8472 23.396 82.1038 23.9887 82.5705 24.418C83.0465 24.838 83.6205 25.048 84.2925 25.048C84.8432 25.048 85.3005 24.922 85.6645 24.67C86.0378 24.4087 86.2992 24.0633 86.4485 23.634H87.8205C87.6152 24.3713 87.2045 24.9733 86.5885 25.44C85.9725 25.8973 85.2072 26.126 84.2925 26.126C83.5645 26.126 82.9112 25.9627 82.3325 25.636C81.7632 25.3093 81.3152 24.8473 80.9885 24.25C80.6618 23.6433 80.4985 22.9433 80.4985 22.15C80.4985 21.3567 80.6572 20.6613 80.9745 20.064C81.2918 19.4667 81.7352 19.0093 82.3045 18.692C82.8832 18.3653 83.5458 18.202 84.2925 18.202C85.0205 18.202 85.6645 18.3607 86.2245 18.678C86.7845 18.9953 87.2138 19.434 87.5125 19.994C87.8205 20.5447 87.9745 21.17 87.9745 21.87ZM86.6585 21.604C86.6585 21.1187 86.5512 20.7033 86.3365 20.358C86.1218 20.0033 85.8278 19.7373 85.4545 19.56C85.0905 19.3733 84.6845 19.28 84.2365 19.28C83.5925 19.28 83.0418 19.4853 82.5845 19.896C82.1365 20.3067 81.8798 20.876 81.8145 21.604H86.6585ZM91.2101 19.378V23.9C91.2101 24.2733 91.2895 24.5393 91.4481 24.698C91.6068 24.8473 91.8821 24.922 92.2741 24.922H93.2121V26H92.0641C91.3548 26 90.8228 25.8367 90.4681 25.51C90.1135 25.1833 89.9361 24.6467 89.9361 23.9V19.378H88.9421V18.328H89.9361V16.396H91.2101V18.328H93.2121V19.378H91.2101ZM101.204 26.126C100.616 26.126 100.089 26.028 99.6222 25.832C99.1555 25.6267 98.7868 25.3467 98.5162 24.992C98.2455 24.628 98.0962 24.2127 98.0682 23.746H99.3842C99.4215 24.1287 99.5988 24.4413 99.9162 24.684C100.243 24.9267 100.667 25.048 101.19 25.048C101.675 25.048 102.058 24.9407 102.338 24.726C102.618 24.5113 102.758 24.2407 102.758 23.914C102.758 23.578 102.609 23.3307 102.31 23.172C102.011 23.004 101.549 22.8407 100.924 22.682C100.355 22.5327 99.8882 22.3833 99.5242 22.234C99.1695 22.0753 98.8615 21.8467 98.6002 21.548C98.3482 21.24 98.2222 20.8387 98.2222 20.344C98.2222 19.952 98.3388 19.5927 98.5722 19.266C98.8055 18.9393 99.1368 18.6827 99.5662 18.496C99.9955 18.3 100.485 18.202 101.036 18.202C101.885 18.202 102.571 18.4167 103.094 18.846C103.617 19.2753 103.897 19.8633 103.934 20.61H102.66C102.632 20.2087 102.469 19.8867 102.17 19.644C101.881 19.4013 101.489 19.28 100.994 19.28C100.537 19.28 100.173 19.378 99.9022 19.574C99.6315 19.77 99.4962 20.0267 99.4962 20.344C99.4962 20.596 99.5755 20.806 99.7342 20.974C99.9022 21.1327 100.107 21.2633 100.35 21.366C100.602 21.4593 100.947 21.5667 101.386 21.688C101.937 21.8373 102.385 21.9867 102.73 22.136C103.075 22.276 103.369 22.4907 103.612 22.78C103.864 23.0693 103.995 23.4473 104.004 23.914C104.004 24.334 103.887 24.712 103.654 25.048C103.421 25.384 103.089 25.65 102.66 25.846C102.24 26.0327 101.755 26.126 101.204 26.126ZM107.357 19.378V23.9C107.357 24.2733 107.436 24.5393 107.595 24.698C107.753 24.8473 108.029 24.922 108.421 24.922H109.359V26H108.211C107.501 26 106.969 25.8367 106.615 25.51C106.26 25.1833 106.083 24.6467 106.083 23.9V19.378H105.089V18.328H106.083V16.396H107.357V18.328H109.359V19.378H107.357ZM110.426 22.136C110.426 21.352 110.585 20.666 110.902 20.078C111.22 19.4807 111.654 19.0187 112.204 18.692C112.764 18.3653 113.385 18.202 114.066 18.202C114.738 18.202 115.322 18.3467 115.816 18.636C116.311 18.9253 116.68 19.2893 116.922 19.728V18.328H118.21V26H116.922V24.572C116.67 25.02 116.292 25.3933 115.788 25.692C115.294 25.9813 114.715 26.126 114.052 26.126C113.371 26.126 112.755 25.958 112.204 25.622C111.654 25.286 111.22 24.8147 110.902 24.208C110.585 23.6013 110.426 22.9107 110.426 22.136ZM116.922 22.15C116.922 21.5713 116.806 21.0673 116.572 20.638C116.339 20.2087 116.022 19.882 115.62 19.658C115.228 19.4247 114.794 19.308 114.318 19.308C113.842 19.308 113.408 19.42 113.016 19.644C112.624 19.868 112.312 20.1947 112.078 20.624C111.845 21.0533 111.728 21.5573 111.728 22.136C111.728 22.724 111.845 23.2373 112.078 23.676C112.312 24.1053 112.624 24.4367 113.016 24.67C113.408 24.894 113.842 25.006 114.318 25.006C114.794 25.006 115.228 24.894 115.62 24.67C116.022 24.4367 116.339 24.1053 116.572 23.676C116.806 23.2373 116.922 22.7287 116.922 22.15ZM121.637 19.574C121.861 19.1353 122.178 18.7947 122.589 18.552C123.009 18.3093 123.518 18.188 124.115 18.188V19.504H123.779C122.351 19.504 121.637 20.2787 121.637 21.828V26H120.363V18.328H121.637V19.574ZM127.14 19.378V23.9C127.14 24.2733 127.219 24.5393 127.378 24.698C127.536 24.8473 127.812 24.922 128.204 24.922H129.142V26H127.994C127.284 26 126.752 25.8367 126.398 25.51C126.043 25.1833 125.866 24.6467 125.866 23.9V19.378H124.872V18.328H125.866V16.396H127.14V18.328H129.142V19.378H127.14ZM137.685 21.87C137.685 22.1127 137.671 22.3693 137.643 22.64H131.511C131.558 23.396 131.815 23.9887 132.281 24.418C132.757 24.838 133.331 25.048 134.003 25.048C134.554 25.048 135.011 24.922 135.375 24.67C135.749 24.4087 136.01 24.0633 136.159 23.634H137.531C137.326 24.3713 136.915 24.9733 136.299 25.44C135.683 25.8973 134.918 26.126 134.003 26.126C133.275 26.126 132.622 25.9627 132.043 25.636C131.474 25.3093 131.026 24.8473 130.699 24.25C130.373 23.6433 130.209 22.9433 130.209 22.15C130.209 21.3567 130.368 20.6613 130.685 20.064C131.003 19.4667 131.446 19.0093 132.015 18.692C132.594 18.3653 133.257 18.202 134.003 18.202C134.731 18.202 135.375 18.3607 135.935 18.678C136.495 18.9953 136.925 19.434 137.223 19.994C137.531 20.5447 137.685 21.17 137.685 21.87ZM136.369 21.604C136.369 21.1187 136.262 20.7033 136.047 20.358C135.833 20.0033 135.539 19.7373 135.165 19.56C134.801 19.3733 134.395 19.28 133.947 19.28C133.303 19.28 132.753 19.4853 132.295 19.896C131.847 20.3067 131.591 20.876 131.525 21.604H136.369ZM138.891 22.136C138.891 21.352 139.05 20.666 139.367 20.078C139.684 19.4807 140.118 19.0187 140.669 18.692C141.229 18.3653 141.854 18.202 142.545 18.202C143.142 18.202 143.698 18.342 144.211 18.622C144.724 18.8927 145.116 19.252 145.387 19.7V15.64H146.675V26H145.387V24.558C145.135 25.0153 144.762 25.3933 144.267 25.692C143.772 25.9813 143.194 26.126 142.531 26.126C141.85 26.126 141.229 25.958 140.669 25.622C140.118 25.286 139.684 24.8147 139.367 24.208C139.05 23.6013 138.891 22.9107 138.891 22.136ZM145.387 22.15C145.387 21.5713 145.27 21.0673 145.037 20.638C144.804 20.2087 144.486 19.882 144.085 19.658C143.693 19.4247 143.259 19.308 142.783 19.308C142.307 19.308 141.873 19.42 141.481 19.644C141.089 19.868 140.776 20.1947 140.543 20.624C140.31 21.0533 140.193 21.5573 140.193 22.136C140.193 22.724 140.31 23.2373 140.543 23.676C140.776 24.1053 141.089 24.4367 141.481 24.67C141.873 24.894 142.307 25.006 142.783 25.006C143.259 25.006 143.693 24.894 144.085 24.67C144.486 24.4367 144.804 24.1053 145.037 23.676C145.27 23.2373 145.387 22.7287 145.387 22.15Z" fill="black"/>
</svg>
