<svg width="46" height="44" viewBox="0 0 46 44" fill="none" xmlns="http://www.w3.org/2000/svg">
<g id="tabler:bulb">
<path id="Vector" d="M5.75 22H7.66667M23 5.5V7.33333M38.3333 22H40.25M10.7333 10.2667L12.075 11.55M35.2667 10.2667L33.925 11.55M18.5917 31.1667H27.4083M17.25 29.3333C15.6409 28.179 14.4523 26.5696 13.8526 24.7332C13.2529 22.8968 13.2724 20.9264 13.9085 19.1012C14.5445 17.2761 15.7648 15.6886 17.3965 14.5636C19.0282 13.4387 20.9886 12.8333 23 12.8333C25.0114 12.8333 26.9718 13.4387 28.6035 14.5636C30.2352 15.6886 31.4555 17.2761 32.0915 19.1012C32.7276 20.9264 32.7471 22.8968 32.1474 24.7332C31.5477 26.5696 30.3591 28.179 28.75 29.3333C28.0017 30.0419 27.4382 30.909 27.1053 31.8645C26.7723 32.82 26.6791 33.837 26.8333 34.8333C26.8333 35.8058 26.4295 36.7384 25.7106 37.4261C24.9917 38.1137 24.0167 38.5 23 38.5C21.9833 38.5 21.0083 38.1137 20.2894 37.4261C19.5705 36.7384 19.1667 35.8058 19.1667 34.8333C19.3209 33.837 19.2277 32.82 18.8947 31.8645C18.5618 30.909 17.9983 30.0419 17.25 29.3333Z" stroke="white" stroke-opacity="0.87" stroke-width="2" stroke-linecap="round" stroke-linejoin="round"/>
</g>
</svg>
