<svg width="31" height="33" viewBox="0 0 31 33" fill="none" xmlns="http://www.w3.org/2000/svg">
<g id="teenyicons:documents-solid">
<path id="Vector" fill-rule="evenodd" clip-rule="evenodd" d="M6.19998 3.3C6.19998 2.42479 6.52659 1.58542 7.10795 0.966548C7.68932 0.347678 8.47781 0 9.29998 0L22.0121 0L28.9333 4.9104V25.3C28.9333 26.1752 28.6067 27.0146 28.0253 27.6335C27.444 28.2523 26.6555 28.6 25.8333 28.6H24.8V29.7C24.8 30.5752 24.4734 31.4146 23.892 32.0335C23.3107 32.6523 22.5222 33 21.7 33H5.16665C4.34448 33 3.55598 32.6523 2.97462 32.0335C2.39326 31.4146 2.06665 30.5752 2.06665 29.7V7.7C2.06665 6.82479 2.39326 5.98542 2.97462 5.36655C3.55598 4.74768 4.34448 4.4 5.16665 4.4H6.19998V3.3ZM6.19998 6.6H5.16665C4.89259 6.6 4.62976 6.71589 4.43597 6.92218C4.24219 7.12847 4.13332 7.40826 4.13332 7.7V29.7C4.13332 29.9917 4.24219 30.2715 4.43597 30.4778C4.62976 30.6841 4.89259 30.8 5.16665 30.8H21.7C21.974 30.8 22.2369 30.6841 22.4307 30.4778C22.6244 30.2715 22.7333 29.9917 22.7333 29.7V28.6H9.29998C8.47781 28.6 7.68932 28.2523 7.10795 27.6335C6.52659 27.0146 6.19998 26.1752 6.19998 25.3V6.6Z" fill="black"/>
</g>
</svg>
