<svg width="72" height="72" viewBox="0 0 72 72" fill="none" xmlns="http://www.w3.org/2000/svg">
<g id="div">
<rect width="72" height="72" rx="36" fill="white"/>
<path id="Vector" d="M27.9414 36.4766C27.8047 36.0039 27.6367 35.1797 27.6367 35.1797H27.6172C27.6172 35.1797 27.4492 36.0039 27.3125 36.4766L26.8789 37.9414H28.3672L27.9414 36.4766ZM46.0625 31H35.125V43.5H46.0625C46.582 43.5 47 43.082 47 42.5625V31.9375C47 31.418 46.582 31 46.0625 31ZM45.125 35.6875C45.125 35.9453 44.9141 36.1562 44.6562 36.1562H44.2109C43.9414 37.0781 43.3633 38.0078 42.543 38.8867C42.8711 39.1367 43.2109 39.375 43.5625 39.5898C43.7773 39.7227 43.8477 40 43.7227 40.2227L43.4141 40.7656C43.2812 40.9961 42.9883 41.0703 42.7617 40.9336C42.2695 40.6289 41.8047 40.3047 41.3789 39.9609C40.9531 40.3008 40.4922 40.6289 39.9961 40.9336C39.7695 41.0703 39.4766 40.9961 39.3438 40.7656L39.0352 40.2227C38.9102 40.0039 38.9805 39.7227 39.1992 39.5898C39.5625 39.3672 39.9023 39.1328 40.2188 38.8867C39.9102 38.5586 39.6367 38.2227 39.3984 37.8828C39.2422 37.6602 39.3125 37.3516 39.543 37.2148L39.7969 37.0625L40.082 36.8945C40.293 36.7695 40.5664 36.8281 40.707 37.0273C40.9023 37.3008 41.1289 37.5742 41.3867 37.8438C41.9141 37.2891 42.3164 36.7148 42.5586 36.1562H38.0938C37.8359 36.1562 37.625 35.9453 37.625 35.6875V35.0625C37.625 34.8047 37.8359 34.5938 38.0938 34.5938H40.5938V33.9688C40.5938 33.7109 40.8047 33.5 41.0625 33.5H41.6875C41.9453 33.5 42.1562 33.7109 42.1562 33.9688V34.5938H44.6562C44.9141 34.5938 45.125 34.8047 45.125 35.0625V35.6875ZM22 31.9375V42.5625C22 43.082 22.418 43.5 22.9375 43.5H33.875V31H22.9375C22.418 31 22 31.418 22 31.9375ZM24.3008 40.3789L26.5469 33.7734C26.6133 33.582 26.7891 33.457 26.9922 33.457H28.2617C28.4609 33.457 28.6406 33.5859 28.707 33.7734L30.9531 40.3789C31.0547 40.6836 30.832 41 30.5078 41H29.6133C29.5122 40.9999 29.4138 40.9672 29.3329 40.9066C29.2519 40.8461 29.1927 40.761 29.1641 40.6641L28.7969 39.418H26.4453L26.0898 40.6602C26.0312 40.8594 25.8477 41 25.6406 41H24.7461C24.4258 41 24.1992 40.6836 24.3008 40.3789Z" fill="#7A7A7A"/>
<rect x="0.5" y="0.5" width="71" height="71" rx="35.5" stroke="black" stroke-opacity="0.12"/>
</g>
</svg>
