<svg width="33" height="33" viewBox="0 0 33 33" fill="none" xmlns="http://www.w3.org/2000/svg">
<path d="M32.75 16.5C32.75 25.4746 25.4746 32.75 16.5 32.75C7.52537 32.75 0.25 25.4746 0.25 16.5C0.25 7.52537 7.52537 0.25 16.5 0.25C25.4746 0.25 32.75 7.52537 32.75 16.5Z" fill="white" fill-opacity="0.87" stroke="black" stroke-width="0.5"/>
<path d="M17.242 17.897C17.6727 17.965 18.0637 18.1407 18.415 18.424C18.7777 18.7073 19.061 19.0587 19.265 19.478C19.4803 19.8973 19.588 20.345 19.588 20.821C19.588 21.4217 19.435 21.9657 19.129 22.453C18.823 22.929 18.3753 23.3087 17.786 23.592C17.208 23.864 16.5223 24 15.729 24H11.309V12.151H15.559C16.3637 12.151 17.0493 12.287 17.616 12.559C18.1827 12.8197 18.6077 13.1767 18.891 13.63C19.1743 14.0833 19.316 14.5933 19.316 15.16C19.316 15.8627 19.1233 16.4463 18.738 16.911C18.364 17.3643 17.8653 17.693 17.242 17.897ZM12.856 17.268H15.457C16.1823 17.268 16.7433 17.098 17.14 16.758C17.5367 16.418 17.735 15.9477 17.735 15.347C17.735 14.7463 17.5367 14.276 17.14 13.936C16.7433 13.596 16.171 13.426 15.423 13.426H12.856V17.268ZM15.593 22.725C16.3637 22.725 16.9643 22.5437 17.395 22.181C17.8257 21.8183 18.041 21.314 18.041 20.668C18.041 20.0107 17.8143 19.495 17.361 19.121C16.9077 18.7357 16.3013 18.543 15.542 18.543H12.856V22.725H15.593Z" fill="black"/>
</svg>
