<svg width="33" height="33" viewBox="0 0 33 33" fill="none" xmlns="http://www.w3.org/2000/svg">
<path d="M32.75 16.5C32.75 25.4746 25.4746 32.75 16.5 32.75C7.52537 32.75 0.25 25.4746 0.25 16.5C0.25 7.52537 7.52537 0.25 16.5 0.25C25.4746 0.25 32.75 7.52537 32.75 16.5Z" fill="white" fill-opacity="0.87" stroke="black" stroke-width="0.5"/>
<path d="M10.731 18.067C10.731 16.911 10.9917 15.874 11.513 14.956C12.0343 14.0267 12.7427 13.3013 13.638 12.78C14.5447 12.2587 15.5477 11.998 16.647 11.998C17.939 11.998 19.0667 12.3097 20.03 12.933C20.9933 13.5563 21.696 14.4403 22.138 15.585H20.285C19.9563 14.871 19.4803 14.3213 18.857 13.936C18.245 13.5507 17.5083 13.358 16.647 13.358C15.8197 13.358 15.0773 13.5507 14.42 13.936C13.7627 14.3213 13.247 14.871 12.873 15.585C12.499 16.2877 12.312 17.115 12.312 18.067C12.312 19.0077 12.499 19.835 12.873 20.549C13.247 21.2517 13.7627 21.7957 14.42 22.181C15.0773 22.5663 15.8197 22.759 16.647 22.759C17.5083 22.759 18.245 22.572 18.857 22.198C19.4803 21.8127 19.9563 21.263 20.285 20.549H22.138C21.696 21.6823 20.9933 22.5607 20.03 23.184C19.0667 23.796 17.939 24.102 16.647 24.102C15.5477 24.102 14.5447 23.847 13.638 23.337C12.7427 22.8157 12.0343 22.096 11.513 21.178C10.9917 20.26 10.731 19.223 10.731 18.067Z" fill="black"/>
</svg>
