<svg width="33" height="33" viewBox="0 0 33 33" fill="none" xmlns="http://www.w3.org/2000/svg">
<path d="M32.75 16.5C32.75 25.4746 25.4746 32.75 16.5 32.75C7.52537 32.75 0.25 25.4746 0.25 16.5C0.25 7.52537 7.52537 0.25 16.5 0.25C25.4746 0.25 32.75 7.52537 32.75 16.5Z" fill="white" fill-opacity="0.87" stroke="black" stroke-width="0.5"/>
<path d="M14.998 12.151C16.29 12.151 17.4063 12.3947 18.347 12.882C19.299 13.358 20.0243 14.0437 20.523 14.939C21.033 15.8343 21.288 16.8883 21.288 18.101C21.288 19.3137 21.033 20.3677 20.523 21.263C20.0243 22.147 19.299 22.827 18.347 23.303C17.4063 23.7677 16.29 24 14.998 24H11.309V12.151H14.998ZM14.998 22.725C16.528 22.725 17.6953 22.3227 18.5 21.518C19.3047 20.702 19.707 19.563 19.707 18.101C19.707 16.6277 19.299 15.4773 18.483 14.65C17.6783 13.8227 16.5167 13.409 14.998 13.409H12.856V22.725H14.998Z" fill="black"/>
</svg>
