<svg width="33" height="33" viewBox="0 0 33 33" fill="none" xmlns="http://www.w3.org/2000/svg">
<path d="M32.75 16.5C32.75 25.4746 25.4746 32.75 16.5 32.75C7.52537 32.75 0.25 25.4746 0.25 16.5C0.25 7.52537 7.52537 0.25 16.5 0.25C25.4746 0.25 32.75 7.52537 32.75 16.5Z" fill="white" fill-opacity="0.87" stroke="black" stroke-width="0.5"/>
<path d="M20.285 15.585C19.9563 14.8937 19.4803 14.361 18.857 13.987C18.2337 13.6017 17.5083 13.409 16.681 13.409C15.8537 13.409 15.1057 13.6017 14.437 13.987C13.7797 14.361 13.2583 14.905 12.873 15.619C12.499 16.3217 12.312 17.1377 12.312 18.067C12.312 18.9963 12.499 19.8123 12.873 20.515C13.2583 21.2177 13.7797 21.7617 14.437 22.147C15.1057 22.521 15.8537 22.708 16.681 22.708C17.837 22.708 18.789 22.3623 19.537 21.671C20.285 20.9797 20.7213 20.0447 20.846 18.866H16.12V17.608H22.495V18.798C22.4043 19.7727 22.0983 20.668 21.577 21.484C21.0557 22.2887 20.37 22.929 19.52 23.405C18.67 23.8697 17.7237 24.102 16.681 24.102C15.5817 24.102 14.5787 23.847 13.672 23.337C12.7653 22.8157 12.0457 22.096 11.513 21.178C10.9917 20.26 10.731 19.223 10.731 18.067C10.731 16.911 10.9917 15.874 11.513 14.956C12.0457 14.0267 12.7653 13.307 13.672 12.797C14.5787 12.2757 15.5817 12.015 16.681 12.015C17.939 12.015 19.0497 12.3267 20.013 12.95C20.9877 13.5733 21.696 14.4517 22.138 15.585H20.285Z" fill="black"/>
</svg>
